<?xml version="1.0" standalone="no"?>
<!DOCTYPE svg PUBLIC "-//W3C//DTD SVG 20010904//EN"
 "http://www.w3.org/TR/2001/REC-SVG-20010904/DTD/svg10.dtd">
<svg version="1.0" xmlns="http://www.w3.org/2000/svg"
 width="1369.000000pt" height="405.000000pt" viewBox="0 0 1369.000000 405.000000"
 preserveAspectRatio="xMidYMid meet">

<g transform="translate(0.000000,405.000000) scale(0.100000,-0.100000)"
fill="#000000" stroke="none">
<path d="M8044 4026 c-44 -19 -80 -71 -93 -134 -15 -70 -15 -2247 -1 -2411 20
-226 74 -369 184 -488 105 -113 226 -165 421 -179 100 -7 250 14 291 41 49 32
76 135 55 213 -16 57 -37 66 -132 58 -96 -8 -209 8 -267 37 -89 44 -156 146
-184 282 -7 33 -13 470 -17 1265 -6 1196 -6 1216 -26 1250 -39 67 -153 100
-231 66z"/>
<path d="M140 3998 c-52 -15 -86 -43 -109 -91 -21 -43 -21 -44 -21 -1478 0
-1377 1 -1436 19 -1475 21 -47 59 -77 116 -93 62 -17 1038 -14 1185 3 393 48
659 158 899 375 199 179 340 445 402 756 54 269 49 671 -10 925 -79 339 -246
607 -496 795 -194 146 -479 244 -821 284 -117 14 -1115 13 -1164 -1z m1115
-313 c72 -8 139 -17 150 -19 11 -3 51 -12 90 -22 114 -27 255 -89 353 -156 58
-40 181 -162 218 -218 126 -186 195 -415 212 -709 28 -471 -78 -847 -303
-1074 -152 -154 -358 -253 -615 -296 -153 -26 -255 -31 -607 -31 l-373 0 0
1270 0 1270 373 0 c257 0 412 -5 502 -15z"/>
<path d="M12455 3060 c-437 -44 -753 -356 -831 -820 -25 -153 -16 -458 19
-590 104 -401 350 -650 713 -726 100 -20 327 -20 425 0 129 27 287 105 379
189 40 36 107 121 134 168 l25 43 7 -28 c4 -16 4 -130 1 -255 -6 -252 -19
-322 -77 -445 -41 -86 -137 -184 -221 -226 -140 -71 -364 -90 -590 -50 -161
29 -235 54 -387 132 -74 37 -145 68 -158 68 -103 0 -174 -119 -128 -215 19
-42 71 -78 199 -142 171 -86 350 -129 635 -153 123 -10 289 1 415 29 320 71
538 280 620 596 40 156 40 152 40 1250 0 1042 0 1061 -20 1093 -32 54 -78 76
-155 76 -52 0 -72 -5 -102 -24 -59 -39 -70 -75 -76 -233 l-5 -138 -45 68
c-164 244 -467 368 -817 333z m395 -312 c237 -72 399 -263 453 -533 67 -335
-15 -674 -204 -851 -196 -184 -543 -220 -786 -83 -201 114 -321 342 -339 645
-11 198 16 348 93 502 117 238 337 361 618 346 54 -3 128 -15 165 -26z"/>
<path d="M3960 3041 c-192 -41 -344 -124 -486 -266 -163 -163 -251 -333 -301
-583 -23 -118 -23 -391 0 -517 39 -216 124 -392 259 -540 292 -320 855 -415
1344 -226 84 33 230 115 273 154 53 49 66 132 28 188 -45 67 -113 77 -198 29
-232 -129 -360 -169 -574 -177 -175 -6 -295 15 -423 77 -120 57 -232 170 -290
290 -44 92 -77 211 -88 321 l-7 68 774 3 c726 3 776 4 807 21 44 24 62 70 62
154 0 83 -23 257 -45 336 -95 358 -337 599 -669 668 -122 25 -347 25 -466 0z
m398 -257 c204 -42 348 -175 423 -391 20 -59 49 -215 49 -265 l0 -28 -665 0
-666 0 6 38 c37 218 101 357 214 471 100 100 210 157 349 181 80 13 209 11
290 -6z"/>
<path d="M5547 3051 c-81 -17 -131 -82 -124 -162 3 -33 121 -321 413 -1000
385 -899 411 -957 454 -999 102 -102 270 -90 348 24 11 17 204 454 428 971
365 843 407 947 412 1004 3 49 0 72 -12 96 -30 56 -102 82 -185 66 -87 -17
-79 -1 -452 -896 -187 -451 -348 -836 -356 -855 -11 -27 -16 -32 -23 -20 -4 8
-161 390 -349 848 -187 458 -350 847 -362 863 -36 51 -113 75 -192 60z"/>
<path d="M9901 3039 c-338 -71 -598 -301 -711 -629 -45 -132 -61 -229 -67
-407 -11 -336 48 -571 197 -788 200 -288 554 -437 950 -397 593 59 945 515
917 1187 -14 344 -120 602 -327 798 -134 127 -289 205 -480 241 -120 23 -358
20 -479 -5z m434 -284 c175 -45 311 -158 396 -330 143 -289 126 -770 -37
-1031 -124 -201 -325 -302 -574 -291 -422 19 -659 351 -637 896 6 151 26 263
64 361 94 235 259 371 498 411 68 11 217 3 290 -16z"/>
</g>
</svg>
